<?xml version="1.0" encoding="UTF-8"?>
<!DOCTYPE svg PUBLIC "-//W3C//DTD SVG 1.1//EN" "http://www.w3.org/Graphics/SVG/1.1/DTD/svg11.dtd">
<svg xmlns="http://www.w3.org/2000/svg" version="1.1" width="686px" height="796px" style="shape-rendering:geometricPrecision; text-rendering:geometricPrecision; image-rendering:optimizeQuality; fill-rule:evenodd; clip-rule:evenodd" xmlns:xlink="http://www.w3.org/1999/xlink">
<g><path style="opacity:1" fill="#fefefe" d="M -0.5,-0.5 C 228.167,-0.5 456.833,-0.5 685.5,-0.5C 685.5,67.1667 685.5,134.833 685.5,202.5C 685.167,202.5 684.833,202.5 684.5,202.5C 570.773,134.648 456.607,67.3142 342,0.5C 228.406,67.3788 114.906,134.379 1.5,201.5C 0.500422,333.666 0.167089,465.999 0.5,598.5C 0.166667,598.5 -0.166667,598.5 -0.5,598.5C -0.5,398.833 -0.5,199.167 -0.5,-0.5 Z"/></g>
<g><path style="opacity:1" fill="#68feed" d="M 684.5,202.5 C 683.833,202.5 683.5,202.833 683.5,203.5C 646.132,224.515 608.798,245.515 571.5,266.5C 495.32,221.91 418.987,177.577 342.5,133.5C 266.377,177.733 190.044,221.733 113.5,265.5C 76.7928,245.817 40.4594,225.651 4.5,205C 2.93709,204.241 1.93709,203.074 1.5,201.5C 114.906,134.379 228.406,67.3788 342,0.5C 456.607,67.3142 570.773,134.648 684.5,202.5 Z"/></g>
<g><path style="opacity:1" fill="#fefefe" d="M 571.5,266.5 C 571.167,399.168 571.5,531.835 572.5,664.5C 610.133,642.836 647.466,620.836 684.5,598.5C 684.833,598.5 685.167,598.5 685.5,598.5C 685.5,664.167 685.5,729.833 685.5,795.5C 456.833,795.5 228.167,795.5 -0.5,795.5C -0.5,729.833 -0.5,664.167 -0.5,598.5C -0.166667,598.5 0.166667,598.5 0.5,598.5C 37.5508,620.863 74.8841,642.863 112.5,664.5C 112.783,665.289 113.283,665.956 114,666.5C 114.833,533.333 114.666,400.333 113.5,267.5C 113.5,266.833 113.5,266.167 113.5,265.5C 190.044,221.733 266.377,177.733 342.5,133.5C 418.987,177.577 495.32,221.91 571.5,266.5 Z"/></g>
<g><path style="opacity:1" fill="#2fb4bf" d="M 1.5,201.5 C 1.93709,203.074 2.93709,204.241 4.5,205C 40.4594,225.651 76.7928,245.817 113.5,265.5C 113.5,266.167 113.5,266.833 113.5,267.5C 113.833,400.001 113.5,532.334 112.5,664.5C 74.8841,642.863 37.5508,620.863 0.5,598.5C 0.167089,465.999 0.500422,333.666 1.5,201.5 Z"/></g>
<g><path style="opacity:1" fill="#c3d9dd" d="M 683.5,203.5 C 683.5,202.833 683.833,202.5 684.5,202.5C 684.833,202.5 685.167,202.5 685.5,202.5C 685.5,334.5 685.5,466.5 685.5,598.5C 685.167,598.5 684.833,598.5 684.5,598.5C 684.833,466.666 684.5,334.999 683.5,203.5 Z"/></g>
<g><path style="opacity:1" fill="#0a4b5b" d="M 683.5,203.5 C 684.5,334.999 684.833,466.666 684.5,598.5C 647.466,620.836 610.133,642.836 572.5,664.5C 571.5,531.835 571.167,399.168 571.5,266.5C 608.798,245.515 646.132,224.515 683.5,203.5 Z"/></g>
<g><path style="opacity:1" fill="#68feec" d="M 455.5,334.5 C 454.448,334.351 453.448,334.517 452.5,335C 416.605,356.444 380.605,377.611 344.5,398.5C 343.127,398.657 341.793,398.49 340.5,398C 303.489,376.731 266.489,355.564 229.5,334.5C 266.94,311.432 304.94,289.099 343.5,267.5C 380.897,289.859 418.23,312.193 455.5,334.5 Z"/></g>
<g><path style="opacity:1" fill="#e6f8fb" d="M 113.5,267.5 C 114.666,400.333 114.833,533.333 114,666.5C 113.283,665.956 112.783,665.289 112.5,664.5C 113.5,532.334 113.833,400.001 113.5,267.5 Z"/></g>
<g><path style="opacity:1" fill="#2fb3bf" d="M 229.5,334.5 C 266.489,355.564 303.489,376.731 340.5,398C 341.793,398.49 343.127,398.657 344.5,398.5C 343.667,442.432 343,486.432 342.5,530.5C 305.194,509.179 267.861,487.845 230.5,466.5C 229.5,422.505 229.167,378.505 229.5,334.5 Z"/></g>
<g><path style="opacity:1" fill="#0a4b5b" d="M 455.5,334.5 C 455.5,353.5 455.5,372.5 455.5,391.5C 455.823,416.241 455.49,440.908 454.5,465.5C 417.167,487.167 379.833,508.833 342.5,530.5C 343,486.432 343.667,442.432 344.5,398.5C 380.605,377.611 416.605,356.444 452.5,335C 453.448,334.517 454.448,334.351 455.5,334.5 Z"/></g>
<g><path style="opacity:1" fill="#cadee3" d="M 455.5,391.5 C 456.167,403.662 456.5,415.995 456.5,428.5C 456.499,441.185 455.832,453.519 454.5,465.5C 455.49,440.908 455.823,416.241 455.5,391.5 Z"/></g>
<g><path style="opacity:1" fill="#2fb4bd" d="M 343.5,663.5 C 343.508,707.17 343.174,750.837 342.5,794.5C 304.926,773.594 267.593,752.261 230.5,730.5C 229.167,686.5 229.167,642.5 230.5,598.5C 268.031,620.431 305.698,642.098 343.5,663.5 Z"/></g>
<g><path style="opacity:1" fill="#0a4b5b" d="M 455.5,687.5 C 455.815,701.579 455.482,715.579 454.5,729.5C 417.167,751.167 379.833,772.833 342.5,794.5C 343.174,750.837 343.508,707.17 343.5,663.5C 380.721,641.637 417.888,619.637 455,597.5C 455.5,627.498 455.667,657.498 455.5,687.5 Z"/></g>
<g><path style="opacity:1" fill="#c0d8de" d="M 455.5,687.5 C 456.166,694.325 456.5,701.325 456.5,708.5C 456.497,715.867 455.83,722.867 454.5,729.5C 455.482,715.579 455.815,701.579 455.5,687.5 Z"/></g>
</svg>
